<svg xmlns="http://www.w3.org/2000/svg" viewBox="0 0 109.03 107.54"><defs><style>.cls-1{fill:#50d897;}.cls-2{fill:#3d3db7;}.cls-3{fill:#fc7770;}.cls-4{fill:#fff;}</style></defs><g id="Capa_2" data-name="Capa 2"><g id="_3simples_steps" data-name="3simples steps"><circle class="cls-1" cx="92.27" cy="91.5" r="14"/><path class="cls-1" d="M30.54,90.78a13.53,13.53,0,0,1-13.75,13.27,13.28,13.28,0,1,1,0-26.55,14,14,0,0,1,10.09,4.26L17.64,91Z"/><path class="cls-2" d="M92.32,74.13a16.91,16.91,0,0,0-2.37.18L83.52,57.87,85.65,54l2.55,6.8a1.84,1.84,0,0,0,1.64,1h.55l.1-.06a1.82,1.82,0,0,0,1-2.24l-3-8.1a2.86,2.86,0,0,0-2.41-1.84,3,3,0,0,0-2.6,1.45L81.93,53.8,76.13,39H62.72a1.45,1.45,0,1,1,0-2.89h5.73a1.69,1.69,0,0,0,0-3.37H62.72A4.83,4.83,0,0,0,58.1,36H48.89c-2.77,0-4.49-.33-5.82-1.12l1.66-7.25a6.6,6.6,0,0,0-.82-4.9,6.4,6.4,0,0,0-4.08-2.92l-3.91-1a6.59,6.59,0,0,0-4.9.82,6.44,6.44,0,0,0-2.93,4.09l-6,25.88h0l-.45,1.68c-.91,4.1-.15,7.52,2.27,10.16,2,2.27,5.26,3.92,9.55,4.91L40.5,68,28.05,78.73a16.55,16.55,0,0,0-17.37-3.38,16.24,16.24,0,0,0-9.25,8.8A16.61,16.61,0,0,0,1.1,96.84a16.24,16.24,0,0,0,8.8,9.25,16,16,0,0,0,12.81.22A17.11,17.11,0,0,0,33.3,92.52H46.51a27.35,27.35,0,0,0,19.48-8L83.4,67.07l3.16,8.08a16.72,16.72,0,1,0,5.76-1Zm-53.24,15H21.28L41.54,71.66l-3,13.78A6,6,0,0,0,39.08,89.14ZM51.64,65.87l-5,21.37a2.57,2.57,0,0,1-3,1.81,2.42,2.42,0,0,1-1.52-1,2.38,2.38,0,0,1-.35-1.83l4.42-20.36L34.2,63c-3.47-.82-6.14-2.15-7.74-3.85a6.54,6.54,0,0,1-1.77-5.3l22.89,5.37A5.54,5.54,0,0,1,51.64,65.87ZM38.08,53.35l2.86-10.44a1.57,1.57,0,0,0-.16-1.33,1.83,1.83,0,0,0-1-.81h0a1.59,1.59,0,0,0-1.34.15,1.94,1.94,0,0,0-.82,1L34.81,52.31l-9.3-2.15,6-25.87A3.45,3.45,0,0,1,33,22.43a2.9,2.9,0,0,1,2.31-.37l3.89,1A3.43,3.43,0,0,1,41,24.44a2.88,2.88,0,0,1,.37,2.32L40.15,32.1l-3.62-3.92a1.61,1.61,0,0,0-1.19-.61A1.87,1.87,0,0,0,34.1,28a1.72,1.72,0,0,0-.16,2.46l5.29,5.73c2.71,2.94,6.41,3.18,9.66,3.18H58.1a4.84,4.84,0,0,0,4.62,3.25H73.83L81.43,62H55a8.92,8.92,0,0,0-6.54-6.26Zm42,12.16L63.55,82.05a23.83,23.83,0,0,1-13.76,6.87,5.61,5.61,0,0,0,.34-1l5-21.39a7.72,7.72,0,0,0,.18-1ZM15.36,91.34a1.91,1.91,0,0,0,1.77,1.18H29.78A13.12,13.12,0,0,1,21.48,103h0a12.55,12.55,0,0,1-10.1-.21,12.61,12.61,0,0,1-7-7.29,12.51,12.51,0,0,1,.21-10.1,12.59,12.59,0,0,1,7.28-7A13.33,13.33,0,0,1,25.47,81L15.8,89.29A1.84,1.84,0,0,0,15.36,91.34Zm90.18-.51A13.22,13.22,0,1,1,92.32,77.61,13.23,13.23,0,0,1,105.54,90.83Z"/><path class="cls-2" d="M40,18.4h.34a9.2,9.2,0,1,0-9.14-9.59,8.91,8.91,0,0,0,2.41,6.63A9.31,9.31,0,0,0,40,18.4ZM34.59,9h0a5.76,5.76,0,0,1,5.76-5.48h.2a5.54,5.54,0,0,1,4,1.83A5.82,5.82,0,0,1,46,9.46a5.66,5.66,0,0,1-5.95,5.46,6,6,0,0,1-4-1.89A5.6,5.6,0,0,1,34.59,9Z"/><path class="cls-3" d="M51.64,65.87l-5,21.37a2.57,2.57,0,0,1-3,1.81,2.42,2.42,0,0,1-1.52-1,2.38,2.38,0,0,1-.35-1.83l4.42-20.36L34.2,63c-3.47-.82-6.14-2.15-7.74-3.85a6.54,6.54,0,0,1-1.77-5.3l22.89,5.37A5.54,5.54,0,0,1,51.64,65.87Z"/><path class="cls-4" d="M34.59,9h0A5.75,5.75,0,0,1,40.35,3.5h.2a5.53,5.53,0,0,1,4,1.82A5.85,5.85,0,0,1,46,9.47a5.66,5.66,0,0,1-5.95,5.46,6,6,0,0,1-4-1.89A5.6,5.6,0,0,1,34.59,9Z"/></g></g></svg>