<svg xmlns="http://www.w3.org/2000/svg" viewBox="0 0 1449.84 506"><defs><style>.cls-1{isolation:isolate;}.cls-2{mix-blend-mode:multiply;}.cls-3{fill:none;stroke:#10106b;stroke-miterlimit:10;stroke-width:3px;}</style></defs><g class="cls-1"><g id="Capa_2" data-name="Capa 2"><g id="vancouver"><g class="cls-2"><line class="cls-3" x1="861.22" y1="335.75" x2="1241.16" y2="335.75"/><line class="cls-3" x1="904.39" y1="422.58" x2="1240.84" y2="422.58"/><path class="cls-3" d="M873.78,362.61l-13-26.84c8.74-18.46,114.13-33,242.84-33,51.06,0,98.44,2.29,137.58,6.21"/><line class="cls-3" x1="1086.41" y1="257.35" x2="1090.58" y2="362.61"/><line class="cls-3" x1="943.38" y1="255.98" x2="969.62" y2="362.61"/><line class="cls-3" x1="900.74" y1="255.98" x2="933.33" y2="362.61"/><line class="cls-3" x1="869.11" y1="255.98" x2="901.7" y2="362.61"/><path class="cls-3" d="M1111.17,303.06c-82.52,0-122.41-47.08-122.41-47.08l20.87,106.63"/><path class="cls-3" d="M1108.72,303.06c-40.94,0-71.57-48.94-71.57-48.94l11.56,108.49"/><path class="cls-3" d="M1108.42,303.06C983.26,303.06,953,265.61,953,265.61l11,44"/><path class="cls-3" d="M1068.53,303.06c-125.15,0-158.16-40.2-158.16-40.2l16.5,50.88"/><path class="cls-3" d="M1110.12,302.89c-185.16,0-228.63-33.16-228.63-33.16L898,319.24"/><path class="cls-3" d="M1087.78,303.06c-215.86,0-233.8-37.45-233.8-37.45l23.38,59.13"/><line class="cls-3" x1="1135.54" y1="257.35" x2="1131.38" y2="362.61"/><path class="cls-3" d="M1110.78,303.06c82.52,0,122.41-47.08,122.41-47.08l-20.87,106.63"/><path class="cls-3" d="M1113.23,303.06c40.94,0,71.58-48.94,71.58-48.94l-11.56,108.49"/><path class="cls-3" d="M1113.54,303.06c65.28,0,104.74-10.19,127.56-19.94"/><path class="cls-3" d="M1153.42,303.06c36.63,0,65.36-3.44,87.69-8.32"/><path class="cls-3" d="M1111.84,302.89c54.58,0,96.84-2.88,129.32-6.95"/><path class="cls-3" d="M1134.17,303.06c43,0,78.21-1.49,106.94-3.87"/><path class="cls-3" d="M358.21,425.94a84.58,84.58,0,1,0-134.45,0Z"/><path class="cls-3" d="M233.84,407.05a65,65,0,0,1-8.54-32.41,65.69,65.69,0,1,1,131.38,0,64.92,64.92,0,0,1-8.55,32.41Z"/><polyline class="cls-3" points="223.53 438.59 223.53 425.94 358.45 425.94 358.45 438.59"/><polyline class="cls-3" points="413.68 438.62 140.08 438.62 140.08 485.16 146.73 485.16 146.73 504.5 413.44 504.5"/><line class="cls-3" x1="1241.24" y1="415.77" x2="1359.16" y2="415.77"/><line class="cls-3" x1="1241.24" y1="36.73" x2="1360.05" y2="36.73"/><path class="cls-3" d="M1323.34,432.27h0a19.95,19.95,0,0,1,19.95,19.95V504.5a0,0,0,0,1,0,0h-39.9a0,0,0,0,1,0,0V452.22a19.95,19.95,0,0,1,19.95-19.95Z"/><path class="cls-3" d="M683.05,268.67h-9.24V256.78a21.5,21.5,0,0,1,43,0v11.89h-8.66"/><path class="cls-3" d="M426.89,504.5V461.19a8.33,8.33,0,0,1,8.33-8.32h0a8.33,8.33,0,0,1,8.32,8.32V504.5"/><rect class="cls-3" x="167.37" y="460.51" width="225.14" height="21.54" rx="10.77"/><line class="cls-3" x1="198.15" y1="460.64" x2="198.15" y2="481.78"/><line class="cls-3" x1="230.87" y1="460.64" x2="230.87" y2="481.78"/><line class="cls-3" x1="263.58" y1="460.64" x2="263.58" y2="481.78"/><line class="cls-3" x1="296.3" y1="460.64" x2="296.3" y2="481.78"/><line class="cls-3" x1="329.02" y1="460.64" x2="329.02" y2="481.78"/><line class="cls-3" x1="361.73" y1="460.64" x2="361.73" y2="481.78"/><line class="cls-3" x1="1403.98" y1="244.15" x2="1403.98" y2="202.5"/><path class="cls-3" d="M1416.24,236.8h9.23v11.9a21.49,21.49,0,1,1-43,0V236.8h8.66"/><path class="cls-3" d="M1411.41,210.64a8.92,8.92,0,0,0,1.54-5,9.33,9.33,0,0,0-.17-1.74,9,9,0,0,0-10.52-7.09,8.86,8.86,0,0,0-5.73,3.79,9,9,0,0,0,.08,10.15"/><rect class="cls-3" x="1359.61" y="438.96" width="88.73" height="65.54"/><line class="cls-3" x1="1374.01" y1="457.98" x2="1374.01" y2="491.28"/><line class="cls-3" x1="1388.99" y1="457.98" x2="1388.99" y2="491.28"/><line class="cls-3" x1="1403.98" y1="457.98" x2="1403.98" y2="491.28"/><line class="cls-3" x1="1418.96" y1="457.98" x2="1418.96" y2="491.28"/><line class="cls-3" x1="1433.95" y1="457.98" x2="1433.95" y2="491.28"/><path class="cls-3" d="M1367.69,438.8V306.24a36.29,36.29,0,1,1,72.58,0V438.8"/><path class="cls-3" d="M1381.74,320.05V305.91a17,17,0,0,1,16.94-17h1.41"/><rect class="cls-3" x="1241.15" y="1.5" width="118.66" height="503"/><polyline class="cls-3" points="648.72 355.8 605.23 355.8 605.23 391.65 527.05 391.65 527.05 423.39 484.74 423.39 484.74 504.5 904.39 504.5 904.39 423.39 862.07 423.39 862.07 392.38 783.9 391.65 783.9 355.8 742.13 355.8"/><rect class="cls-3" x="648.47" y="277.37" width="93.68" height="227.13"/><rect class="cls-3" x="514.02" y="443.7" width="9.99" height="42.64" rx="5"/><rect class="cls-3" x="536.11" y="443.7" width="9.99" height="42.64" rx="5"/><rect class="cls-3" x="558.21" y="443.7" width="9.99" height="42.64" rx="5"/><rect class="cls-3" x="580.3" y="443.7" width="9.99" height="42.64" rx="5"/><rect class="cls-3" x="602.39" y="443.7" width="9.99" height="42.64" rx="5"/><rect class="cls-3" x="773.05" y="443.7" width="9.99" height="42.64" rx="5"/><rect class="cls-3" x="795.14" y="443.7" width="9.99" height="42.64" rx="5"/><rect class="cls-3" x="817.24" y="443.7" width="9.99" height="42.64" rx="5"/><rect class="cls-3" x="839.33" y="443.7" width="9.99" height="42.64" rx="5"/><rect class="cls-3" x="861.42" y="443.7" width="9.99" height="42.64" rx="5"/><path class="cls-3" d="M947.93,477v-26.3a9,9,0,0,0-9-9h0a9,9,0,0,0-9,9V477Z"/><path class="cls-3" d="M1000.81,477v-26.3a9,9,0,0,0-9-9h0a9,9,0,0,0-9,9V477Z"/><path class="cls-3" d="M1053.69,477v-26.3a9,9,0,0,0-9-9h0a9,9,0,0,0-9.05,9V477Z"/><path class="cls-3" d="M1106.57,477v-26.3a9,9,0,0,0-9-9h0a9,9,0,0,0-9,9V477Z"/><path class="cls-3" d="M1159.45,477v-26.3a9,9,0,0,0-9-9h0a9,9,0,0,0-9.05,9V477Z"/><path class="cls-3" d="M1212.33,477v-26.3a9,9,0,0,0-9-9h0a9,9,0,0,0-9,9V477Z"/><path class="cls-3" d="M712.5,504.5H678.12v-68a17.19,17.19,0,0,1,17.19-17.19h0a17.19,17.19,0,0,1,17.19,17.19Z"/><circle class="cls-3" cx="695.31" cy="304.96" r="12.38" transform="translate(-63.6 282.36) rotate(-21.98)"/><circle class="cls-3" cx="778.13" cy="418.79" r="7.01"/><circle class="cls-3" cx="802.57" cy="418.79" r="7.01"/><circle class="cls-3" cx="827.02" cy="418.79" r="7.01"/><circle class="cls-3" cx="557.16" cy="418.79" r="7.01"/><circle class="cls-3" cx="581.61" cy="418.79" r="7.01"/><circle class="cls-3" cx="606.06" cy="418.79" r="7.01"/><line class="cls-3" x1="664.81" y1="295.49" x2="664.81" y2="467.67"/><line class="cls-3" x1="725.8" y1="295.49" x2="725.8" y2="467.67"/><line class="cls-3" x1="685.14" y1="333.24" x2="685.14" y2="401.05"/><line class="cls-3" x1="705.47" y1="333.24" x2="705.47" y2="401.05"/><path class="cls-3" d="M1331.34,80.79a10,10,0,1,1-10-10A10,10,0,0,1,1331.34,80.79Z"/><path class="cls-3" d="M1331.34,137.51a10,10,0,1,1-10-10A10,10,0,0,1,1331.34,137.51Z"/><path class="cls-3" d="M1331.34,191.46a10,10,0,1,1-10-10A10,10,0,0,1,1331.34,191.46Z"/><path class="cls-3" d="M1331.34,248.58a10,10,0,1,1-10-10A10,10,0,0,1,1331.34,248.58Z"/><path class="cls-3" d="M1331.34,304.11a10,10,0,1,1-10-10A10,10,0,0,1,1331.34,304.11Z"/><path class="cls-3" d="M1331.34,359.65a10,10,0,1,1-10-10A10,10,0,0,1,1331.34,359.65Z"/><path class="cls-3" d="M1286.84,80.79a10,10,0,1,1-10-10A10,10,0,0,1,1286.84,80.79Z"/><path class="cls-3" d="M1286.84,191.46a10,10,0,1,1-10-10A10,10,0,0,1,1286.84,191.46Z"/><path class="cls-3" d="M1286.84,137.51a10,10,0,1,1-10-10A10,10,0,0,1,1286.84,137.51Z"/><path class="cls-3" d="M1286.84,248.58a10,10,0,1,1-10-10A10,10,0,0,1,1286.84,248.58Z"/><path class="cls-3" d="M1286.84,359.65a10,10,0,1,1-10-10A10,10,0,0,1,1286.84,359.65Z"/><path class="cls-3" d="M1286.84,304.11a10,10,0,1,1-10-10A10,10,0,0,1,1286.84,304.11Z"/><path class="cls-3" d="M18.12,370.93h0a16.62,16.62,0,0,1,16.62,16.62v117a0,0,0,0,1,0,0H1.5a0,0,0,0,1,0,0v-117a16.62,16.62,0,0,1,16.62-16.62Z"/><line class="cls-3" x1="18.12" y1="384.04" x2="18.12" y2="494.05"/><line class="cls-3" x1="211.77" y1="403.35" x2="34.99" y2="403.35"/><line class="cls-3" x1="216.42" y1="413.78" x2="34.99" y2="413.78"/><path class="cls-3" d="M35,397.5s43.41-45.7,171.2-26.29"/><path class="cls-3" d="M49.36,403.08V388.26a.89.89,0,0,1,1.32-.77l25.77,15.18a.89.89,0,0,0,1.32-.77V377.42a.88.88,0,0,1,1.51-.63l24.47,26.33a.89.89,0,0,0,1.52-.63V372a.88.88,0,0,1,1.51-.63l31,31a.89.89,0,0,0,1.51-.63V369a.89.89,0,0,1,1.52-.62l33.91,33.91a.89.89,0,0,0,1.52-.63V370.77a.88.88,0,0,1,1.51-.63l33.92,34"/><rect class="cls-3" x="413.44" y="66.41" width="71.12" height="438.09"/><line class="cls-3" x1="429.44" y1="421.04" x2="468.56" y2="460.17"/><line class="cls-3" x1="429.44" y1="395.32" x2="468.56" y2="434.45"/><line class="cls-3" x1="429.44" y1="369.59" x2="468.56" y2="408.72"/><line class="cls-3" x1="429.44" y1="343.86" x2="468.56" y2="382.99"/><line class="cls-3" x1="429.44" y1="318.14" x2="468.56" y2="357.27"/><line class="cls-3" x1="429.44" y1="292.41" x2="468.56" y2="331.54"/><line class="cls-3" x1="429.44" y1="266.68" x2="468.56" y2="305.81"/><line class="cls-3" x1="429.44" y1="240.96" x2="468.56" y2="280.09"/><line class="cls-3" x1="429.44" y1="215.23" x2="468.56" y2="254.36"/><line class="cls-3" x1="429.44" y1="189.5" x2="468.56" y2="228.63"/><line class="cls-3" x1="429.44" y1="163.78" x2="468.56" y2="202.91"/><line class="cls-3" x1="429.44" y1="138.05" x2="468.56" y2="177.18"/><line class="cls-3" x1="429.44" y1="112.32" x2="468.56" y2="151.45"/><line class="cls-3" x1="429.44" y1="86.6" x2="468.56" y2="125.73"/><polyline class="cls-3" points="496.93 423.55 496.93 207.59 515.13 207.59 515.13 196.92 549.58 196.92 549.58 207.59 567.78 207.59 567.78 389.6 527.05 389.6 527.05 423.23"/><line class="cls-3" x1="513" y1="223.01" x2="513" y2="406.29"/><line class="cls-3" x1="532.35" y1="223.01" x2="532.35" y2="372.98"/><line class="cls-3" x1="551.71" y1="223.01" x2="551.71" y2="372.98"/><line class="cls-3" x1="904.2" y1="504.5" x2="1241.36" y2="504.5"/><polyline class="cls-3" points="1240.84 362.61 856.57 362.61 827.41 391.77"/><line class="cls-3" x1="839.3" y1="379.95" x2="1241.5" y2="379.95"/><line class="cls-3" x1="915.52" y1="395.93" x2="915.52" y2="408.66"/><line class="cls-3" x1="948.39" y1="395.93" x2="948.39" y2="408.66"/><line class="cls-3" x1="981.27" y1="395.93" x2="981.27" y2="408.66"/><line class="cls-3" x1="1014.14" y1="395.93" x2="1014.14" y2="408.66"/><line class="cls-3" x1="1047.02" y1="395.93" x2="1047.02" y2="408.66"/><line class="cls-3" x1="1079.9" y1="395.93" x2="1079.9" y2="408.66"/><line class="cls-3" x1="1112.77" y1="395.93" x2="1112.77" y2="408.66"/><line class="cls-3" x1="1145.65" y1="395.93" x2="1145.65" y2="408.66"/><line class="cls-3" x1="1178.52" y1="395.93" x2="1178.52" y2="408.66"/><line class="cls-3" x1="1211.4" y1="395.93" x2="1211.4" y2="408.66"/><rect class="cls-3" x="915.65" y="395.64" width="295.88" height="12.74" rx="6.37"/></g></g></g></g></svg>