<svg xmlns="http://www.w3.org/2000/svg" viewBox="0 0 14.66 31.56"><defs><style>.cls-1{fill:#7b9ef4;fill-rule:evenodd;}</style></defs><g id="Capa_2" data-name="Capa 2"><g id="Layer_1" data-name="Layer 1"><path class="cls-1" d="M3.23,15.91V31.17a.39.39,0,0,0,.4.39H9.3a.39.39,0,0,0,.39-.39V15.66H13.8a.4.4,0,0,0,.4-.37l.39-4.67a.39.39,0,0,0-.39-.43H9.69V6.87a1.41,1.41,0,0,1,1.41-1.4h3.17a.39.39,0,0,0,.39-.4V.4a.39.39,0,0,0-.39-.4H8.92A5.69,5.69,0,0,0,3.23,5.68v4.51H.4a.4.4,0,0,0-.4.4v4.67a.4.4,0,0,0,.4.4H3.23Z"/></g></g></svg>