<svg xmlns="http://www.w3.org/2000/svg" viewBox="0 0 121.01 103.69"><defs><style>.cls-1{fill:#3d3db7;}.cls-2{fill:#50d897;}.cls-3{fill:#fff;}.cls-4{fill:#7b9ef4;}.cls-5{fill:#fc7770;}</style></defs><g id="Capa_2" data-name="Capa 2"><g id="why_milligram" data-name="why milligram"><path class="cls-1" d="M74.8,52.12V12.89a12.9,12.9,0,0,0-25.79,0V52.12a12.9,12.9,0,0,0,25.79,0ZM61.91,3.72a9.18,9.18,0,0,1,9.17,9.17V30.64H52.73V12.89A9.18,9.18,0,0,1,61.91,3.72Zm-9.18,48.4V34.36H71.08V52.12a9.18,9.18,0,0,1-18.35,0Z"/><path class="cls-2" d="M61.91,3.72a9.18,9.18,0,0,1,9.17,9.17V30.64H52.73V12.89A9.18,9.18,0,0,1,61.91,3.72Z"/><path class="cls-1" d="M73.24,72A14.85,14.85,0,1,0,58.39,57.19,14.85,14.85,0,0,0,73.24,72ZM84.37,57.19a11.14,11.14,0,0,1-9.28,11V46.22A11.15,11.15,0,0,1,84.37,57.19Zm-13-11V68.16a11.13,11.13,0,0,1,0-21.94Z"/><path class="cls-3" d="M84.37,57.19a11.14,11.14,0,0,1-9.28,11V46.22A11.15,11.15,0,0,1,84.37,57.19Z"/><path class="cls-4" d="M71.38,46.22V68.16a11.13,11.13,0,0,1,0-21.94Z"/><path class="cls-1" d="M21.66,92.83H2a2,2,0,0,1-1.95-2V51.47a2,2,0,0,1,2-1.95H21.66a2,2,0,0,1,1.95,1.95V90.88A2,2,0,0,1,21.66,92.83ZM3.9,88.93H19.71V53.42H3.9Z"/><path class="cls-1" d="M59.58,103.69a35.27,35.27,0,0,1-19.57-6L29.4,90.65a14.86,14.86,0,0,0-7.8-2.5,2,2,0,0,1-1.89-2V55a2,2,0,0,1,1.95-2H36a35.19,35.19,0,0,1,19.31,5.78l11.62,7.6a9.52,9.52,0,0,1,4,5.68L94.71,57.6a23.75,23.75,0,0,1,23.3-.87,5.48,5.48,0,0,1,3,4.32,5.41,5.41,0,0,1-2,4.79L77.67,98.64a1.7,1.7,0,0,1-.22.15A35.25,35.25,0,0,1,59.58,103.69Zm-36-19.29a18.94,18.94,0,0,1,8,3l10.61,7.07a31.17,31.17,0,0,0,33.17,1l41.17-32.71a1.5,1.5,0,0,0,.59-1.34,1.57,1.57,0,0,0-.88-1.24,19.84,19.84,0,0,0-19.48.73L70.94,76.62a9.54,9.54,0,0,1-1.06,2.68,9.23,9.23,0,0,1-12.44,3.56L42.88,74.92a2,2,0,1,1,1.87-3.43l14.56,7.94a5.33,5.33,0,0,0,7.19-2.09,5.78,5.78,0,0,0-1.76-7.68L53.12,62.05A31.27,31.27,0,0,0,36,56.91H23.62V84.4Z"/><rect class="cls-5" x="3.9" y="53.42" width="15.8" height="35.51"/><path class="cls-1" d="M63.32,1.69h4a0,0,0,0,1,0,0v10a2,2,0,0,1-2,2h0a2,2,0,0,1-2-2v-10A0,0,0,0,1,63.32,1.69Z"/></g></g></svg>