<svg xmlns="http://www.w3.org/2000/svg" viewBox="0 0 99.75 110.73"><defs><style>.cls-1{fill:#3d3db7;}.cls-2{fill:#7b9ef4;}.cls-3{fill:#fff;}.cls-4{fill:#fc7770;}.cls-5{fill:#50d897;}</style></defs><g id="Capa_2" data-name="Capa 2"><g id="_3simples_steps" data-name="3simples steps"><path class="cls-1" d="M93.14,36.58,75.55,12a2.34,2.34,0,0,0-1.9-.93,2.3,2.3,0,0,0-1.89.93L67.93,17.3,61,6.55a2.33,2.33,0,0,0-2-1.06,2.3,2.3,0,0,0-2,1.06l-19.43,30H24.77V30a8.75,8.75,0,0,0,.95-.87,7.79,7.79,0,0,0,8.73-.43A7.52,7.52,0,0,0,37.17,25a7.79,7.79,0,0,0-3.62-9.32,7.44,7.44,0,0,0,.37-2.34,7.82,7.82,0,0,0-7.67-7.81,7.81,7.81,0,0,0-14.92,0A7.81,7.81,0,0,0,4,15.64,7.79,7.79,0,0,0,.41,25a7.5,7.5,0,0,0,2.71,3.73,7.79,7.79,0,0,0,8.73.43,9.8,9.8,0,0,0,1,.87v6.59H2.33A2.32,2.32,0,0,0,0,38.9H0a2.33,2.33,0,0,0,2.33,2.33H5.49V64.17a46.12,46.12,0,0,0,38.3,45.53l5.69,1a2.58,2.58,0,0,0,.4,0,2.45,2.45,0,0,0,.39,0l5.7-1a46.13,46.13,0,0,0,38.3-45.53V41.23h3.15a2.33,2.33,0,0,0,2.33-2.33h0a2.32,2.32,0,0,0-2.33-2.32Z"/><path class="cls-2" d="M90.11,64.16A42,42,0,0,1,55.26,105.6h0a31.55,31.55,0,0,1-10.75,0h0A42,42,0,0,1,9.64,64.16V40.73H90.11Z"/><path class="cls-1" d="M57.29,64a1.84,1.84,0,0,0,2.43.1A10.71,10.71,0,0,1,73,64.1a1.84,1.84,0,0,0,2.43-.1h0a1.85,1.85,0,0,0-.18-2.79,14.4,14.4,0,0,0-17.75,0A1.84,1.84,0,0,0,57.29,64Z"/><path class="cls-1" d="M49.88,88.28A10.71,10.71,0,0,1,43.26,86a1.85,1.85,0,0,0-2.43.09h0A1.84,1.84,0,0,0,41,88.88a14.4,14.4,0,0,0,17.75,0,1.85,1.85,0,0,0,.18-2.79h0A1.85,1.85,0,0,0,56.5,86,10.75,10.75,0,0,1,49.88,88.28Z"/><path class="cls-1" d="M24.37,64h0a1.84,1.84,0,0,0,2.43.1A10.71,10.71,0,0,1,40,64.1a1.84,1.84,0,0,0,2.43-.1h0a1.85,1.85,0,0,0-.18-2.79,14.39,14.39,0,0,0-17.74,0A1.84,1.84,0,0,0,24.37,64Z"/><polygon class="cls-3" points="73.65 16.45 88.39 37.08 58.92 37.08 73.65 16.45"/><polygon class="cls-4" points="59.02 11.18 65.62 21.39 54.42 37.08 42.27 37.08 59.02 11.18"/><path class="cls-5" d="M12.4,23.84h-.15a1.82,1.82,0,0,0-1.48.75A3.62,3.62,0,0,1,7.82,26.1a3.64,3.64,0,0,1-.25-7.28,1.83,1.83,0,0,0,1.57-1.14,1.85,1.85,0,0,0-.35-1.92,3.62,3.62,0,0,1-1-2.46,3.66,3.66,0,0,1,3.65-3.66,3.58,3.58,0,0,1,1.24.24,1.85,1.85,0,0,0,1.72-.25,1.83,1.83,0,0,0,.73-1.58,1.6,1.6,0,0,0,0-.23,3.66,3.66,0,0,1,7.32-.06s0,.24,0,.29a1.82,1.82,0,0,0,2.45,1.83,3.62,3.62,0,0,1,1.24-.24,3.64,3.64,0,0,1,2.69,6.12,1.81,1.81,0,0,0-.35,1.92A1.83,1.83,0,0,0,30,18.82a3.64,3.64,0,0,1-.25,7.28,3.61,3.61,0,0,1-3-1.52,1.82,1.82,0,0,0-3.12.27,5.45,5.45,0,0,1-9.81,0A1.79,1.79,0,0,0,12.4,23.84Z"/><path class="cls-5" d="M17,31.4a9.16,9.16,0,0,0,1.83.19,9.32,9.32,0,0,0,1.83-.19v5.68H17Z"/><rect class="cls-1" x="82.79" y="45.39" width="3.66" height="3.66" rx="1.83"/><rect class="cls-1" x="75.48" y="45.39" width="3.66" height="3.66" rx="1.83"/><rect class="cls-1" x="68.16" y="45.39" width="3.66" height="3.66" rx="1.83"/></g></g></svg>