<svg xmlns="http://www.w3.org/2000/svg" viewBox="0 0 301.11 286.84"><defs><style>.cls-1{isolation:isolate;}.cls-2{fill:#fc7770;mix-blend-mode:overlay;}</style></defs><g class="cls-1"><g id="Capa_2" data-name="Capa 2"><g id="Layer_1" data-name="Layer 1"><path class="cls-2" d="M274.36,159.4l-118.82,122h0l-5,5.39L84.45,219.35a7.11,7.11,0,1,1,10.06-10L149.79,266l113.8-116.68c30.16-30.87,30.16-81.13,0-112a75.42,75.42,0,0,0-108.41,0l-5,5.38-5-5.38a75.43,75.43,0,0,0-108.42,0c-30.16,30.87-30.16,81.13,0,112a7.11,7.11,0,0,1-10,10.06c-35.55-36.26-35.55-95.5,0-132.12a90,90,0,0,1,124.21-4.66A88.68,88.68,0,0,1,210.46,0a89.89,89.89,0,0,1,64.62,27.28C309.91,63.9,309.91,123.14,274.36,159.4Z"/></g></g></g></svg>