<svg xmlns="http://www.w3.org/2000/svg" viewBox="0 0 33.28 31.77"><defs><style>.cls-1{fill:#7b9ef4;}</style></defs><g id="Capa_2" data-name="Capa 2"><g id="Layer_1" data-name="Layer 1"><path class="cls-1" d="M23,31.77H10.26A10.28,10.28,0,0,1,0,21.5V10.26A10.27,10.27,0,0,1,10.26,0H23A10.27,10.27,0,0,1,33.28,10.26V21.5A10.28,10.28,0,0,1,23,31.77ZM10.26,2.28a8,8,0,0,0-8,8V21.5a8,8,0,0,0,8,8H23a8,8,0,0,0,8-8V10.26a8,8,0,0,0-8-8Z"/><path class="cls-1" d="M16.64,25a9.14,9.14,0,1,1,9.14-9.14A9.15,9.15,0,0,1,16.64,25Zm0-16a6.86,6.86,0,1,0,6.86,6.85A6.86,6.86,0,0,0,16.64,9Z"/><path class="cls-1" d="M27.53,7a1.9,1.9,0,1,1-1.89-1.9A1.89,1.89,0,0,1,27.53,7Z"/></g></g></svg>