<svg xmlns="http://www.w3.org/2000/svg" viewBox="0 0 397.79 148.62">
<defs><style>.cls-1{fill:#3d3db7;}.cls-2{fill:#7b9ef4;}</style></defs>
<g id="Capa_2" data-name="Capa 2"><g id="homepage01">
<g id="logo"><path class="cls-1" d="M167.69,14.38A17.65,17.65,0,0,0,160.16,3,17.92,17.92,0,0,0,140,3.17a2.86,2.86,0,0,0-.93,3.58v.18l.29.3a2.87,2.87,0,0,0,3.89.61,12.11,12.11,0,1,1,.16,20,2.84,2.84,0,0,0-3.95.77,2.78,2.78,0,0,0-.44,2.13,2.82,2.82,0,0,0,1.2,1.82,17.73,17.73,0,0,0,9.91,3,18.14,18.14,0,0,0,3.44-.33,17.81,17.81,0,0,0,14.08-20.87Z"/>
<path class="cls-1" d="M150.65,144.87h0a3.75,3.75,0,0,0-3.75-3.76H67.45A60,60,0,0,1,7.51,82.19c-.56-33.53,27.77-61,61.31-61H146.9a3.75,3.75,0,0,0,3.75-3.76h0a3.75,3.75,0,0,0-3.75-3.75H67.45A67.53,67.53,0,0,0,0,83.21c1.09,36.68,32.15,65.41,68.86,65.41h78A3.75,3.75,0,0,0,150.65,144.87Z"/>
<path class="cls-2" d="M397.79,81c-.11-37.28-30.82-67.26-68.11-67.26H248.83a5.44,5.44,0,0,0-5.44,5.44V52.88a3.75,3.75,0,0,0,3.75,3.75h0a3.75,3.75,0,0,0,3.75-3.75V23.54a2.32,2.32,0,0,1,2.32-2.32h76.47c33.08,0,60.41,26.51,60.6,59.59a60,60,0,0,1-59.95,60.3H253.21a2.32,2.32,0,0,1-2.32-2.32v-13.6a3.75,3.75,0,0,0-3.75-3.75h0a3.75,3.75,0,0,0-3.75,3.75v18a5.44,5.44,0,0,0,5.44,5.44h81.5A67.54,67.54,0,0,0,397.79,81Z"/>
<path class="cls-2" d="M361.14,72.78a3.75,3.75,0,0,0,3.73-4.22,31.55,31.55,0,0,0-31.22-27.28H311.11A3.75,3.75,0,0,0,307.36,45h0a3.75,3.75,0,0,0,3.75,3.76h22.54a24,24,0,0,1,23.78,20.78,3.73,3.73,0,0,0,3.71,3.21Z"/>
<path class="cls-1" d="M68.67,103.76V87.24c0-4.07-2.13-7.76-6.32-7.76s-6.57,3.69-6.57,7.76v16.52H48.15V72.85h7.07l.56,3.75c1.63-3.13,5.19-4.25,8.14-4.25,3.69,0,7.38,1.5,9.13,5.75a11.16,11.16,0,0,1,10.32-5.63c8.76,0,13.08,5.38,13.08,14.64v16.65H88.82V87.11c0-4.06-1.69-7.51-5.82-7.51s-6.7,3.57-6.7,7.64v16.52Z"/>
<path class="cls-1" d="M112.53,64.21c0,6-9,6-9,0S112.53,58.27,112.53,64.21Zm-8.32,8.57v31h7.63v-31Z"/><path class="cls-1" d="M129.14,60v43.74h-7.57V60Z"/>
<path class="cls-1" d="M146.26,60v43.74h-7.57V60Z"/><path class="cls-1" d="M163.17,64.21c0,6-9,6-9,0S163.17,58.27,163.17,64.21Zm-8.32,8.57v31h7.63v-31Z"/><path class="cls-1" d="M211.66,72.85l.13,5.5c1.94-4.19,6.32-5.82,10.26-5.82a12.12,12.12,0,0,1,6.63,1.82l-1.38,2.5a9.93,9.93,0,0,0-5.25-1.44,10.27,10.27,0,0,0-10.2,10.33v18h-3.07V72.85Z"/><path class="cls-1" d="M259.23,72.85v30.91h-3.06V97.19a14.47,14.47,0,0,1-12.64,7.07,15.47,15.47,0,0,1-15.71-16,15.36,15.36,0,0,1,15.71-15.83,14,14,0,0,1,12.64,7.13V72.85ZM230.89,88.3c0,7.76,5.63,13,12.64,13,17.21,0,17.21-25.84,0-25.84C236.52,75.41,230.89,80.54,230.89,88.3Z"/><path class="cls-1" d="M313.36,103.76V85.24c0-5.95-4-10.14-9.89-10.14s-10,4.38-10,10.32v18.34h-3.06V85.42c0-5.94-4.07-10.26-9.95-10.26s-9.89,4.32-9.89,10.26v18.34h-3.06V72.85h2.87L270.5,78a10.88,10.88,0,0,1,10.07-5.76c4.69,0,9.64,2.13,11.45,7.64a12,12,0,0,1,11.45-7.64c7.57,0,12.95,5.32,12.95,13v18.52Z"/><path class="cls-1" d="M197.37,73.15V80a14.19,14.19,0,0,0-12.78-7.21,15.53,15.53,0,0,0-15.88,16,15.64,15.64,0,0,0,15.88,16.13,14.62,14.62,0,0,0,12.78-7.15v1.59h0a13.84,13.84,0,0,1-3.48,9.77c-2.31,2.47-5.53,3.73-9.57,3.73a20.22,20.22,0,0,1-3.15-.22,16.78,16.78,0,0,1-2.41-.55l-1.58-.51a5.54,5.54,0,0,1-1.7-1l-1.42,2.59.36.23a16.86,16.86,0,0,0,4.46,1.75,21.23,21.23,0,0,0,5.31.7,17.45,17.45,0,0,0,8.46-2,14.41,14.41,0,0,0,5.73-5.7,17.63,17.63,0,0,0,2.09-8.78h0V73.15Zm-12.78,28.71c-7.08,0-12.78-5.25-12.78-13.09s5.7-13,12.78-13C202,75.74,202,101.86,184.59,101.86Z"/></g></g></g></svg>