<svg xmlns="http://www.w3.org/2000/svg" viewBox="0 0 358.97 148.08"><defs><style>.cls-1{isolation:isolate;}.cls-2{mix-blend-mode:multiply;}.cls-3,.cls-4{fill:none;stroke-miterlimit:10;}.cls-3{stroke:#10106b;stroke-width:4.5px;}.cls-4{stroke:#2424b2;}.cls-5{fill:#10106b;}</style></defs><g class="cls-1"><g id="Capa_2" data-name="Capa 2"><g id="Layer_1" data-name="Layer 1"><g class="cls-2"><line class="cls-3" x1="213.26" y1="106.02" x2="307.39" y2="106.02"/><line class="cls-3" x1="223.95" y1="127.53" x2="307.31" y2="127.53"/><path class="cls-3" d="M216.37,112.67,213.14,106c2.17-4.57,28.28-8.18,60.17-8.18,12.65,0,24.39.57,34.09,1.54"/><line class="cls-3" x1="269.05" y1="86.6" x2="270.08" y2="112.67"/><line class="cls-3" x1="233.61" y1="86.26" x2="240.11" y2="112.67"/><line class="cls-3" x1="223.05" y1="86.26" x2="231.12" y2="112.67"/><line class="cls-3" x1="215.21" y1="86.26" x2="223.28" y2="112.67"/><path class="cls-3" d="M275.18,97.92c-20.44,0-30.32-11.66-30.32-11.66L250,112.67"/><path class="cls-3" d="M274.58,97.92c-10.15,0-17.74-12.13-17.74-12.13l2.87,26.88"/><path class="cls-3" d="M274.5,97.92c-31,0-38.5-9.28-38.5-9.28l2.72,10.9"/><path class="cls-3" d="M264.62,97.92c-31,0-39.19-10-39.19-10l4.09,12.61"/><path class="cls-3" d="M274.92,97.88c-45.87,0-56.64-8.22-56.64-8.22l4.09,12.27"/><path class="cls-3" d="M269.39,97.92c-53.48,0-57.93-9.28-57.93-9.28l5.8,14.65"/><line class="cls-3" x1="281.22" y1="86.6" x2="280.19" y2="112.67"/><path class="cls-3" d="M275.09,97.92c20.44,0,30.33-11.66,30.33-11.66l-5.17,26.41"/><path class="cls-3" d="M275.69,97.92c10.15,0,17.74-12.13,17.74-12.13l-2.87,26.88"/><path class="cls-3" d="M275.77,97.92c16.18,0,26-2.52,31.61-4.94"/><path class="cls-3" d="M285.65,97.92a102,102,0,0,0,21.73-2.06"/><path class="cls-3" d="M275.35,97.88a261.66,261.66,0,0,0,32-1.72"/><path class="cls-3" d="M280.88,97.92c10.67,0,19.38-.37,26.5-1"/><path class="cls-3" d="M88.63,128.36a21,21,0,1,0-33.31,0Z"/><path class="cls-3" d="M57.82,123.69a16,16,0,0,1-2.12-8,16.28,16.28,0,1,1,30.43,8Z"/><polyline class="cls-3" points="55.26 131.5 55.26 128.37 88.69 128.37 88.69 131.5"/><polyline class="cls-3" points="102.37 131.51 34.59 131.51 34.59 143.04 36.23 143.04 36.23 147.83 102.31 147.83"/><line class="cls-3" x1="307.41" y1="125.85" x2="336.63" y2="125.85"/><line class="cls-3" x1="307.41" y1="31.93" x2="336.85" y2="31.93"/><path class="cls-3" d="M327.75,129.93h0a4.94,4.94,0,0,1,4.94,4.94v13a0,0,0,0,1,0,0h-9.89a0,0,0,0,1,0,0v-13A4.94,4.94,0,0,1,327.75,129.93Z"/><path class="cls-3" d="M169.11,89.4h-2.29v-3a5.33,5.33,0,0,1,10.65,0v3h-2.14"/><path class="cls-3" d="M105.65,147.83V137.1a2.06,2.06,0,0,1,2.06-2.06h0a2.06,2.06,0,0,1,2.06,2.06v10.73"/><rect class="cls-3" x="41.35" y="136.93" width="55.78" height="5.34" rx="2.67"/><line class="cls-3" x1="48.97" y1="136.96" x2="48.97" y2="142.2"/><line class="cls-3" x1="57.08" y1="136.96" x2="57.08" y2="142.2"/><line class="cls-3" x1="65.18" y1="136.96" x2="65.18" y2="142.2"/><line class="cls-3" x1="73.29" y1="136.96" x2="73.29" y2="142.2"/><line class="cls-3" x1="81.4" y1="136.96" x2="81.4" y2="142.2"/><line class="cls-3" x1="89.5" y1="136.96" x2="89.5" y2="142.2"/><line class="cls-3" x1="347.73" y1="83.32" x2="347.73" y2="73.01"/><path class="cls-3" d="M350.77,81.5h2.29v2.94a5.33,5.33,0,1,1-10.65,0v-3h2.14"/><path class="cls-3" d="M349.57,75a2.21,2.21,0,0,0,.38-1.24,2,2,0,0,0,0-.42,2.19,2.19,0,0,0-.94-1.42,2.15,2.15,0,0,0-1.67-.34,2.2,2.2,0,0,0-1.42.94,2.25,2.25,0,0,0,0,2.51"/><rect class="cls-3" x="336.74" y="131.59" width="21.98" height="16.24"/><line class="cls-3" x1="340.31" y1="136.3" x2="340.31" y2="144.55"/><line class="cls-3" x1="344.02" y1="136.3" x2="344.02" y2="144.55"/><line class="cls-3" x1="347.73" y1="136.3" x2="347.73" y2="144.55"/><line class="cls-3" x1="351.44" y1="136.3" x2="351.44" y2="144.55"/><line class="cls-3" x1="355.16" y1="136.3" x2="355.16" y2="144.55"/><path class="cls-3" d="M338.74,131.55V98.71a9,9,0,0,1,18,0v32.84"/><path class="cls-3" d="M342.22,102.13v-3.5a4.2,4.2,0,0,1,4.2-4.2h.35"/><rect class="cls-3" x="307.39" y="23.21" width="29.4" height="124.62"/><polyline class="cls-3" points="160.61 110.99 149.83 110.99 149.83 119.87 130.46 119.87 130.46 127.73 119.98 127.73 119.98 147.83 223.95 147.83 223.95 127.73 213.47 127.73 213.47 120.05 194.1 119.87 194.1 110.99 183.75 110.99"/><rect class="cls-3" x="160.54" y="91.56" width="23.21" height="56.27"/><rect class="cls-3" x="127.23" y="132.77" width="2.48" height="10.57" rx="1.24"/><rect class="cls-3" x="132.71" y="132.77" width="2.48" height="10.57" rx="1.24"/><rect class="cls-3" x="138.18" y="132.77" width="2.48" height="10.57" rx="1.24"/><rect class="cls-3" x="143.65" y="132.77" width="2.48" height="10.57" rx="1.24"/><rect class="cls-3" x="149.13" y="132.77" width="2.48" height="10.57" rx="1.24"/><rect class="cls-3" x="191.41" y="132.77" width="2.48" height="10.57" rx="1.24"/><rect class="cls-3" x="196.88" y="132.77" width="2.48" height="10.57" rx="1.24"/><rect class="cls-3" x="202.36" y="132.77" width="2.48" height="10.57" rx="1.24"/><rect class="cls-3" x="207.83" y="132.77" width="2.48" height="10.57" rx="1.24"/><rect class="cls-3" x="213.31" y="132.77" width="2.48" height="10.57" rx="1.24"/><path class="cls-3" d="M234.74,141V134.5a2.24,2.24,0,0,0-2.24-2.24h0a2.24,2.24,0,0,0-2.24,2.24V141Z"/><path class="cls-3" d="M247.84,141V134.5a2.24,2.24,0,0,0-2.24-2.24h0a2.24,2.24,0,0,0-2.24,2.24V141Z"/><path class="cls-3" d="M260.94,141V134.5a2.24,2.24,0,0,0-2.24-2.24h0a2.24,2.24,0,0,0-2.24,2.24V141Z"/><path class="cls-3" d="M274,141V134.5a2.24,2.24,0,0,0-2.24-2.24h0a2.24,2.24,0,0,0-2.24,2.24V141Z"/><path class="cls-3" d="M287.14,141V134.5a2.24,2.24,0,0,0-2.24-2.24h0a2.24,2.24,0,0,0-2.24,2.24V141Z"/><path class="cls-3" d="M300.25,141V134.5a2.24,2.24,0,0,0-2.24-2.24h0a2.24,2.24,0,0,0-2.24,2.24V141Z"/><path class="cls-3" d="M176.41,147.83h-8.52V131a4.26,4.26,0,0,1,4.26-4.26h0a4.26,4.26,0,0,1,4.26,4.26Z"/><circle class="cls-3" cx="172.15" cy="98.39" r="3.07"/><circle class="cls-3" cx="192.67" cy="126.59" r="1.74"/><circle class="cls-3" cx="198.73" cy="126.59" r="1.74"/><circle class="cls-3" cx="204.78" cy="126.59" r="1.74"/><circle class="cls-3" cx="137.92" cy="126.59" r="1.74"/><circle class="cls-3" cx="143.98" cy="126.59" r="1.74"/><circle class="cls-3" cx="150.04" cy="126.59" r="1.74"/><line class="cls-3" x1="164.59" y1="96.04" x2="164.59" y2="138.7"/><line class="cls-3" x1="179.7" y1="96.04" x2="179.7" y2="138.7"/><line class="cls-3" x1="169.63" y1="105.4" x2="169.63" y2="122.2"/><line class="cls-3" x1="174.67" y1="105.4" x2="174.67" y2="122.2"/><path class="cls-3" d="M329.73,42.85a2.47,2.47,0,1,1-2.47-2.47A2.47,2.47,0,0,1,329.73,42.85Z"/><path class="cls-3" d="M329.73,56.9a2.47,2.47,0,1,1-2.47-2.47A2.47,2.47,0,0,1,329.73,56.9Z"/><path class="cls-3" d="M329.73,70.27a2.47,2.47,0,1,1-2.47-2.47A2.47,2.47,0,0,1,329.73,70.27Z"/><path class="cls-3" d="M329.73,84.42A2.47,2.47,0,1,1,327.26,82,2.47,2.47,0,0,1,329.73,84.42Z"/><path class="cls-3" d="M329.73,98.18a2.47,2.47,0,1,1-2.47-2.47A2.47,2.47,0,0,1,329.73,98.18Z"/><path class="cls-3" d="M329.73,111.94a2.47,2.47,0,1,1-2.47-2.47A2.47,2.47,0,0,1,329.73,111.94Z"/><path class="cls-3" d="M318.71,42.85a2.47,2.47,0,1,1-2.47-2.47A2.48,2.48,0,0,1,318.71,42.85Z"/><path class="cls-3" d="M318.71,70.27a2.47,2.47,0,1,1-2.47-2.47A2.48,2.48,0,0,1,318.71,70.27Z"/><path class="cls-3" d="M318.71,56.9a2.47,2.47,0,1,1-2.47-2.47A2.48,2.48,0,0,1,318.71,56.9Z"/><path class="cls-3" d="M318.71,84.42A2.47,2.47,0,1,1,316.24,82,2.48,2.48,0,0,1,318.71,84.42Z"/><path class="cls-3" d="M318.71,111.94a2.47,2.47,0,1,1-2.47-2.47A2.48,2.48,0,0,1,318.71,111.94Z"/><path class="cls-3" d="M318.71,98.18a2.47,2.47,0,1,1-2.47-2.47A2.48,2.48,0,0,1,318.71,98.18Z"/><path class="cls-3" d="M4.37,114.74h0a4.12,4.12,0,0,1,4.12,4.12v29a0,0,0,0,1,0,0H.25a0,0,0,0,1,0,0v-29A4.12,4.12,0,0,1,4.37,114.74Z"/><line class="cls-3" x1="4.37" y1="117.98" x2="4.37" y2="145.24"/><line class="cls-3" x1="52.35" y1="122.77" x2="8.55" y2="122.77"/><line class="cls-3" x1="53.5" y1="125.35" x2="8.55" y2="125.35"/><path class="cls-3" d="M8.55,121.32S19.3,110,51,114.8"/><path class="cls-3" d="M12.11,122.7V119a.21.21,0,0,1,.32-.19l6.39,3.76a.22.22,0,0,0,.33-.19v-6.07a.22.22,0,0,1,.37-.15l6.06,6.52a.22.22,0,0,0,.38-.15V115a.22.22,0,0,1,.37-.16L34,122.51a.22.22,0,0,0,.37-.15v-8.11a.22.22,0,0,1,.38-.16l8.4,8.4a.22.22,0,0,0,.38-.15V114.7a.22.22,0,0,1,.37-.16l8.4,8.43"/><rect class="cls-3" x="102.31" y="39.29" width="17.62" height="108.54"/><line class="cls-3" x1="106.28" y1="127.15" x2="115.97" y2="136.85"/><line class="cls-3" x1="106.28" y1="120.78" x2="115.97" y2="130.47"/><line class="cls-3" x1="106.28" y1="114.4" x2="115.97" y2="124.1"/><line class="cls-3" x1="106.28" y1="108.03" x2="115.97" y2="117.72"/><line class="cls-3" x1="106.28" y1="101.66" x2="115.97" y2="111.35"/><line class="cls-3" x1="106.28" y1="95.28" x2="115.97" y2="104.98"/><line class="cls-3" x1="106.28" y1="88.91" x2="115.97" y2="98.6"/><line class="cls-3" x1="106.28" y1="82.53" x2="115.97" y2="92.23"/><line class="cls-3" x1="106.28" y1="76.16" x2="115.97" y2="85.85"/><line class="cls-3" x1="106.28" y1="69.79" x2="115.97" y2="79.48"/><line class="cls-3" x1="106.28" y1="63.41" x2="115.97" y2="73.11"/><line class="cls-3" x1="106.28" y1="57.04" x2="115.97" y2="66.73"/><line class="cls-3" x1="106.28" y1="50.66" x2="115.97" y2="60.36"/><line class="cls-3" x1="106.28" y1="44.29" x2="115.97" y2="53.98"/><polyline class="cls-3" points="123 127.77 123 74.27 127.51 74.27 127.51 71.62 136.04 71.62 136.04 74.27 140.55 74.27 140.55 119.36 130.46 119.36 130.46 127.69"/><line class="cls-3" x1="126.98" y1="78.09" x2="126.98" y2="123.5"/><line class="cls-3" x1="131.78" y1="78.09" x2="131.78" y2="115.24"/><line class="cls-3" x1="136.57" y1="78.09" x2="136.57" y2="115.24"/><line class="cls-3" x1="223.9" y1="147.83" x2="307.44" y2="147.83"/><polyline class="cls-3" points="307.31 112.67 212.1 112.67 204.88 119.9"/><line class="cls-3" x1="207.82" y1="116.97" x2="307.47" y2="116.97"/><line class="cls-3" x1="226.71" y1="120.93" x2="226.71" y2="124.09"/><line class="cls-3" x1="234.85" y1="120.93" x2="234.85" y2="124.09"/><line class="cls-3" x1="243" y1="120.93" x2="243" y2="124.09"/><line class="cls-3" x1="251.14" y1="120.93" x2="251.14" y2="124.09"/><line class="cls-3" x1="259.29" y1="120.93" x2="259.29" y2="124.09"/><line class="cls-3" x1="267.44" y1="120.93" x2="267.44" y2="124.09"/><line class="cls-3" x1="275.58" y1="120.93" x2="275.58" y2="124.09"/><line class="cls-3" x1="283.73" y1="120.93" x2="283.73" y2="124.09"/><line class="cls-3" x1="291.87" y1="120.93" x2="291.87" y2="124.09"/><line class="cls-3" x1="300.02" y1="120.93" x2="300.02" y2="124.09"/><rect class="cls-3" x="226.74" y="120.86" width="73.31" height="3.16" rx="1.58"/></g><g class="cls-2"><line class="cls-4" x1="313.11" y1="23.18" x2="313.11" y2="16.27"/><line class="cls-4" x1="330.45" y1="23.18" x2="330.45" y2="16.27"/></g><path class="cls-5" d="M305.1,8.13h.46a.13.13,0,0,1,.11,0,.41.41,0,0,1,.07.11.66.66,0,0,1,0,.15l0,.14a1.56,1.56,0,0,1,.38-.33,1.06,1.06,0,0,1,.58-.15,1.12,1.12,0,0,1,.62.16,1.08,1.08,0,0,1,.41.38,1.13,1.13,0,0,1,.46-.4,1.21,1.21,0,0,1,.61-.16,1.37,1.37,0,0,1,.6.11,1.1,1.1,0,0,1,.42.31,1.35,1.35,0,0,1,.24.46,2.61,2.61,0,0,1,.09.58V11.4a.16.16,0,0,1-.06.14.33.33,0,0,1-.15,0h-.53a.34.34,0,0,1-.17,0,.14.14,0,0,1-.06-.13V9.63a.88.88,0,0,0-.11-.45.41.41,0,0,0-.37-.18.52.52,0,0,0-.24.05.65.65,0,0,0-.23.13.53.53,0,0,0-.16.2.4.4,0,0,0-.07.24V11.4a.18.18,0,0,1-.05.14.35.35,0,0,1-.16,0h-.57a.28.28,0,0,1-.15,0,.16.16,0,0,1-.05-.13V9.59a.64.64,0,0,0-.14-.44.54.54,0,0,0-.4-.15.67.67,0,0,0-.24,0,.74.74,0,0,0-.21.13.78.78,0,0,0-.16.2.48.48,0,0,0-.06.24v1.81c0,.1-.05.15-.17.15h-.6c-.13,0-.2-.05-.2-.15V8.34a.2.2,0,0,1,.06-.15A.22.22,0,0,1,305.1,8.13Z"/><path class="cls-5" d="M310.93,7.1a.51.51,0,0,1,.16-.38.53.53,0,0,1,.76,0,.51.51,0,0,1,.16.38.49.49,0,0,1-.16.38.53.53,0,0,1-.76,0A.49.49,0,0,1,310.93,7.1Zm1,1.2v3.11c0,.11-.06.16-.18.16h-.61a.14.14,0,0,1-.16-.16V8.3a.17.17,0,0,1,0-.13.16.16,0,0,1,.12,0h.61a.19.19,0,0,1,.12,0A.15.15,0,0,1,312,8.3Z"/><path class="cls-5" d="M313.06,11.42V6.52a.13.13,0,0,1,.15-.15h.65a.13.13,0,0,1,.15.15v4.9a.13.13,0,0,1-.15.15h-.65A.13.13,0,0,1,313.06,11.42Z"/><path class="cls-5" d="M315,11.42V6.52c0-.1,0-.15.14-.15h.66a.13.13,0,0,1,.15.15v4.9a.13.13,0,0,1-.15.15h-.66C315.09,11.57,315,11.52,315,11.42Z"/><path class="cls-5" d="M316.9,7.1a.55.55,0,0,1,.54-.54.53.53,0,0,1,.54.54.52.52,0,0,1-.15.38.53.53,0,0,1-.39.16.55.55,0,0,1-.38-.16A.53.53,0,0,1,316.9,7.1Zm1,1.2v3.11c0,.11-.06.16-.17.16h-.61c-.11,0-.17-.05-.17-.16V8.3a.17.17,0,0,1,.05-.13s.06,0,.12,0h.61a.15.15,0,0,1,.11,0A.15.15,0,0,1,317.94,8.3Z"/><path class="cls-5" d="M322.18,8.28v2.78a2.64,2.64,0,0,1-.12.83,1.79,1.79,0,0,1-.34.59,1.47,1.47,0,0,1-.53.36,1.92,1.92,0,0,1-.69.12,1.49,1.49,0,0,1-.49-.07,1.57,1.57,0,0,1-.42-.18q-.09,0-.09-.09a.09.09,0,0,1,0,0s0-.05,0-.08l.05-.07,0,0a.09.09,0,0,1,.11-.05l.14.07.29.1a1,1,0,0,0,.29.05,1.36,1.36,0,0,0,.48-.09,1.22,1.22,0,0,0,.41-.25,1.17,1.17,0,0,0,.29-.42,1.45,1.45,0,0,0,.11-.57v-.35a1.05,1.05,0,0,1-.5.58,1.53,1.53,0,0,1-.8.2,1.45,1.45,0,0,1-.66-.14,1.6,1.6,0,0,1-.54-.38,1.82,1.82,0,0,1-.35-.57,1.77,1.77,0,0,1-.13-.69,1.87,1.87,0,0,1,.13-.71,1.75,1.75,0,0,1,.35-.57,1.78,1.78,0,0,1,.54-.39,1.59,1.59,0,0,1,.66-.14,1.63,1.63,0,0,1,.45.06,1.71,1.71,0,0,1,.39.17,1.48,1.48,0,0,1,.3.26.87.87,0,0,1,.17.33l0-.6c0-.09.05-.14.14-.14h.12C322.14,8.14,322.18,8.19,322.18,8.28Zm-.4,1.59a1.63,1.63,0,0,0-.09-.55,1.48,1.48,0,0,0-.28-.45,1.19,1.19,0,0,0-.42-.3,1.13,1.13,0,0,0-.52-.11,1.16,1.16,0,0,0-.52.11,1.36,1.36,0,0,0-.41.3,1.43,1.43,0,0,0-.26.45,1.42,1.42,0,0,0-.1.55,1.4,1.4,0,0,0,.1.54,1.79,1.79,0,0,0,.27.44,1.4,1.4,0,0,0,.41.3,1.23,1.23,0,0,0,.51.11,1.13,1.13,0,0,0,.52-.11,1.25,1.25,0,0,0,.42-.3,1.48,1.48,0,0,0,.27-.44A1.4,1.4,0,0,0,321.78,9.87Z"/><path class="cls-5" d="M323.26,11.45V8.3c0-.11,0-.16.11-.16h.17s.07,0,.08,0a.32.32,0,0,1,0,.09v.39a.86.86,0,0,1,.34-.42,1.07,1.07,0,0,1,.58-.16,1.16,1.16,0,0,1,.34.06,1,1,0,0,1,.31.14.22.22,0,0,1,.07.09.08.08,0,0,1,0,.11l-.1.15a.09.09,0,0,1-.08,0l-.07,0a1,1,0,0,0-.23-.11.66.66,0,0,0-.27-.06.65.65,0,0,0-.36.1,1,1,0,0,0-.28.23,1.41,1.41,0,0,0-.19.34,1.34,1.34,0,0,0-.06.4v1.89a.12.12,0,0,1-.13.13h-.15A.11.11,0,0,1,323.26,11.45Z"/><path class="cls-5" d="M328.89,8.28v3.18c0,.07,0,.11-.12.11h-.17q-.08,0-.09,0s0,0,0-.1v-.61a1.14,1.14,0,0,1-.47.61,1.53,1.53,0,0,1-.81.21,1.45,1.45,0,0,1-.66-.14,1.6,1.6,0,0,1-.54-.38,1.82,1.82,0,0,1-.35-.57,1.77,1.77,0,0,1-.13-.69,1.87,1.87,0,0,1,.13-.71,1.75,1.75,0,0,1,.35-.57,1.78,1.78,0,0,1,.54-.39,1.59,1.59,0,0,1,.66-.14,1.56,1.56,0,0,1,.44.06,1.46,1.46,0,0,1,.38.17,1.2,1.2,0,0,1,.29.26.87.87,0,0,1,.17.33v-.6a.41.41,0,0,1,0-.1s.05,0,.1,0h.15C328.85,8.14,328.89,8.19,328.89,8.28Zm-.4,1.59a1.42,1.42,0,0,0-.1-.55,1.43,1.43,0,0,0-.26-.45,1.31,1.31,0,0,0-.4-.3,1.13,1.13,0,0,0-.52-.11,1.16,1.16,0,0,0-.52.11,1.36,1.36,0,0,0-.41.3,1.43,1.43,0,0,0-.26.45,1.42,1.42,0,0,0-.1.55,1.4,1.4,0,0,0,.1.54,1.79,1.79,0,0,0,.27.44,1.4,1.4,0,0,0,.41.3,1.23,1.23,0,0,0,.51.11,1.13,1.13,0,0,0,.52-.11,1.17,1.17,0,0,0,.4-.3,1.28,1.28,0,0,0,.26-.44A1.4,1.4,0,0,0,328.49,9.87Z"/><path class="cls-5" d="M330.38,9.41v2c0,.09,0,.13-.12.13h-.14c-.09,0-.14,0-.14-.13V8.25a.1.1,0,0,1,.11-.11h.19a.09.09,0,0,1,.07,0s0,0,0,.08v.37a1.29,1.29,0,0,1,.39-.38,1,1,0,0,1,.56-.15,1.17,1.17,0,0,1,.69.21,1.14,1.14,0,0,1,.44.51,1.4,1.4,0,0,1,.43-.53,1.15,1.15,0,0,1,.67-.2,1.19,1.19,0,0,1,.56.13,1.13,1.13,0,0,1,.4.31,1.47,1.47,0,0,1,.24.42,1.58,1.58,0,0,1,.07.47v2a.12.12,0,0,1-.14.14h-.12c-.1,0-.14,0-.14-.13v-2a1,1,0,0,0-.07-.36,1.49,1.49,0,0,0-.18-.3.77.77,0,0,0-.28-.19.81.81,0,0,0-.35-.07.88.88,0,0,0-.41.09.8.8,0,0,0-.29.23,1,1,0,0,0-.18.36,1.14,1.14,0,0,0-.07.41v1.86c0,.09,0,.14-.13.14h-.14c-.09,0-.13,0-.13-.13V9.38a1,1,0,0,0-.07-.35,1,1,0,0,0-.2-.29.77.77,0,0,0-.28-.19.84.84,0,0,0-.35-.07.86.86,0,0,0-.36.07,1,1,0,0,0-.29.2.75.75,0,0,0-.2.3A.86.86,0,0,0,330.38,9.41Z"/><path class="cls-5" d="M316,16.52h-8.67a7.61,7.61,0,0,1-7.65-7.27,7.51,7.51,0,0,1,7.49-7.73H316a.42.42,0,0,1,.42.42h0a.42.42,0,0,1-.42.42h-8.67a6.79,6.79,0,0,0-6.82,6.77,6.67,6.67,0,0,0,6.66,6.55H316a.42.42,0,0,1,.42.42h0A.42.42,0,0,1,316,16.52Z"/><path class="cls-5" d="M336.39,16.52h-9.66v-3h.83v2.18h8.83a6.66,6.66,0,1,0,0-13.32h-8.83V6.29h-.83V1.52h9.66a7.5,7.5,0,0,1,0,15Z"/><path class="cls-5" d="M340.43,8.58h-.83V8.29a2.68,2.68,0,0,0-2.67-2.67H334V4.79h2.92a3.5,3.5,0,0,1,3.5,3.5Z"/><path class="cls-5" d="M318.31,1.6a1.93,1.93,0,0,0-.83-1.26,2,2,0,0,0-2.24,0,.31.31,0,0,0-.1.4v0l0,0a.28.28,0,0,0,.2.12.28.28,0,0,0,.23-.05,1.35,1.35,0,1,1,1.54,2.21,1.34,1.34,0,0,1-1.52,0,.31.31,0,0,0-.44.09.32.32,0,0,0-.05.23.34.34,0,0,0,.14.21,2,2,0,0,0,1.1.33l.38,0A1.94,1.94,0,0,0,318,3.08,1.94,1.94,0,0,0,318.31,1.6Z"/></g></g></g></svg>