<svg xmlns="http://www.w3.org/2000/svg" viewBox="0 0 107.31 102.11"><defs><style>.cls-1{fill:#fff;}.cls-2{fill:#7b9ef4;}.cls-3{fill:#50d897;}.cls-4{fill:#3d3db7;}.cls-5{fill:#fc7770;}</style></defs><g id="Capa_2" data-name="Capa 2"><g id="why_milligram" data-name="why milligram"><path class="cls-1" d="M52.62,70.4l-2.95,4.89H43.81l-3-4.89L42,64.1l3.84,2.12a1.84,1.84,0,0,0,1.79,0l3.84-2.12Z"/><path class="cls-2" d="M29.16,11.85a21.52,21.52,0,0,1,30.11-4.4,21.22,21.22,0,0,1,5.09,5.39,8.27,8.27,0,0,1,.3,8.71l-1,1.79A12.17,12.17,0,0,0,58.16,16l-3.61-2.16a1.74,1.74,0,0,0-2.12.25l-1.12,1.13a12.1,12.1,0,0,1-8.6,3.55,15.76,15.76,0,0,0-9.37,3.12l-2.7,2-2.17-4.37A7.33,7.33,0,0,1,29.16,11.85Z"/><path class="cls-3" d="M91.73,11A15.36,15.36,0,0,0,76.16,26.12a15.58,15.58,0,0,0,31.15,0A15.38,15.38,0,0,0,91.73,11Z"/><path class="cls-4" d="M91.72,10.39A15.58,15.58,0,1,0,107.3,26,15.57,15.57,0,0,0,91.72,10.39Zm0,27.69A12.12,12.12,0,1,1,103.84,26,12.11,12.11,0,0,1,91.72,38.08Z"/><path class="cls-4" d="M96.54,22.38l-7,7-1-1.49a1.29,1.29,0,0,0-1.79-.35h0a1.29,1.29,0,0,0-.36,1.78l1.86,2.8a1.32,1.32,0,0,0,.95.58h.13a1.34,1.34,0,0,0,.91-.38l8.11-8.11a1.3,1.3,0,0,0,0-1.83h0A1.29,1.29,0,0,0,96.54,22.38Z"/><polygon class="cls-5" points="41.79 64.26 39.79 71.26 42.79 77.26 40.79 101.26 53.79 101.26 49.79 75.26 53.79 70.26 51.79 63.26 45.79 66.26 41.79 64.26"/><path class="cls-4" d="M72.09,65.43,55.38,61V55l2-1.68A19,19,0,0,0,64,38.8v-.72h1.73a5.19,5.19,0,1,0,0-10.38H65.3l2.37-4.16a11.73,11.73,0,0,0-.43-12.34,25,25,0,0,0-40.86-1.14,10.77,10.77,0,0,0-1,11.3l3.14,6.34h-.82a5.19,5.19,0,0,0,0,10.38h1.73v.69a19.05,19.05,0,0,0,6.65,14.46l2,1.71v6L21.36,65.43A28.77,28.77,0,0,0,0,93.23v7.15a1.72,1.72,0,0,0,1.73,1.73h90a1.72,1.72,0,0,0,1.73-1.73V93.23A28.77,28.77,0,0,0,72.09,65.43ZM41.54,57.52a10.86,10.86,0,0,0,10.38,0v3.71l-5.19,2.59-5.19-2.59Zm3.23,20.36h3.92l3,20.77H41.8Zm7-7.28-2.55,3.82H44.19L41.64,70.6l1-4.95L46,67.32a1.76,1.76,0,0,0,1.55,0l3.32-1.67ZM67.49,32.89a1.73,1.73,0,0,1-1.73,1.73H64V31.16h1.73A1.72,1.72,0,0,1,67.49,32.89ZM29.15,12.13a21.52,21.52,0,0,1,35.2,1,8.28,8.28,0,0,1,.3,8.72l-1,1.79a12.21,12.21,0,0,0-5.49-7.35L54.54,14.1a1.75,1.75,0,0,0-2.12.26L51.3,15.49A12.1,12.1,0,0,1,42.7,19a15.76,15.76,0,0,0-9.37,3.12l-2.7,2-2.17-4.37A7.33,7.33,0,0,1,29.15,12.13ZM27.69,34.62a1.73,1.73,0,0,1,0-3.46h1.73v3.46Zm5.19,4.15V26.83l2.53-1.9A12.28,12.28,0,0,1,42.7,22.5a15.51,15.51,0,0,0,11-4.57l.17-.18,2.46,1.48a8.68,8.68,0,0,1,4.19,7.43V38.8a15.51,15.51,0,0,1-5.48,11.86l-3.4,2.9a7.84,7.84,0,0,1-9.93,0L38.32,50.6A15.59,15.59,0,0,1,32.88,38.77ZM3.46,93.23A25.31,25.31,0,0,1,22.25,68.78l17.13-4.57-1.28,6.4a1.71,1.71,0,0,0,.26,1.3l3.09,4.64L38.3,98.65H20.77V83.08H17.31V98.65H3.46ZM90,98.65H76.15V83.08H72.69V98.65H55.15L52,76.56l3.1-4.64a1.75,1.75,0,0,0,.26-1.3l-1.29-6.4L71.2,68.79A25.31,25.31,0,0,1,90,93.23Z"/></g></g></svg>