<svg xmlns="http://www.w3.org/2000/svg" viewBox="0 0 102.21 38.19"><defs><style>.cls-1{fill:#7b9ef4;}.cls-2{fill:#3d3db7;}</style></defs><g id="Capa_2" data-name="Capa 2"><g id="Layer_1" data-name="Layer 1"><path class="cls-1" d="M43.08,3.69A4.56,4.56,0,0,0,41.15.77,4.62,4.62,0,0,0,36,.81a.74.74,0,0,0-.24.92v.05l.08.08a.73.73,0,0,0,.45.27A.72.72,0,0,0,36.82,2a3.11,3.11,0,1,1,0,5.14.74.74,0,0,0-1,.19.72.72,0,0,0-.11.55.73.73,0,0,0,.31.47,4.48,4.48,0,0,0,2.55.78,5.33,5.33,0,0,0,.88-.08,4.57,4.57,0,0,0,2.92-1.94A4.52,4.52,0,0,0,43.08,3.69Z"/><path class="cls-1" d="M38.71,37.22h0a1,1,0,0,0-1-1H17.33A15.42,15.42,0,0,1,1.93,21.12,15.69,15.69,0,0,1,17.68,5.45H37.74a1,1,0,0,0,1-1h0a1,1,0,0,0-1-1H17.33A17.35,17.35,0,0,0,0,21.38,17.57,17.57,0,0,0,17.7,38.19h20A1,1,0,0,0,38.71,37.22Z"/><path class="cls-1" d="M12.24,18.93a.45.45,0,0,0-.14.36v7.1q0,.36.45.36h1.39c.27,0,.41-.11.41-.34v-4.2a1.07,1.07,0,0,1,.14-.55,1.7,1.7,0,0,1,.35-.45,1.59,1.59,0,0,1,.5-.3,1.35,1.35,0,0,1,.55-.11,1.21,1.21,0,0,1,.92.36,1.42,1.42,0,0,1,.33,1v4.2a.35.35,0,0,0,.1.3.63.63,0,0,0,.35.07h1.33a.74.74,0,0,0,.36-.08.35.35,0,0,0,.13-.31V22.24a1.19,1.19,0,0,1,.14-.56,1.7,1.7,0,0,1,.38-.46,2.31,2.31,0,0,1,.52-.31A1.64,1.64,0,0,1,21,20.8a.92.92,0,0,1,.85.42,1.89,1.89,0,0,1,.27,1v4.12a.33.33,0,0,0,.13.3.82.82,0,0,0,.39.07h1.23a.72.72,0,0,0,.35-.08.33.33,0,0,0,.14-.31V22.05a4.94,4.94,0,0,0-.2-1.32,3.14,3.14,0,0,0-.57-1.07,2.49,2.49,0,0,0-1-.72,3.27,3.27,0,0,0-1.4-.26A3.08,3.08,0,0,0,18.78,20a2.76,2.76,0,0,0-.94-.88,2.87,2.87,0,0,0-1.45-.37,2.46,2.46,0,0,0-1.33.35,4.27,4.27,0,0,0-.89.76,2.33,2.33,0,0,0-.06-.33,1.59,1.59,0,0,0-.1-.33,1.2,1.2,0,0,0-.16-.27.34.34,0,0,0-.25-.11H12.53A.41.41,0,0,0,12.24,18.93Z"/><path class="cls-1" d="M26.37,17.3a1.22,1.22,0,0,0,.89.35,1.21,1.21,0,0,0,.89-.35,1.19,1.19,0,0,0,.36-.88,1.21,1.21,0,0,0-.36-.88,1.19,1.19,0,0,0-.89-.37,1.25,1.25,0,0,0-.89,2.13Z"/><path class="cls-1" d="M28.28,18.89a.44.44,0,0,0-.28-.1H26.59a.33.33,0,0,0-.27.1.39.39,0,0,0-.1.29v7.2a.32.32,0,0,0,.37.37H28c.27,0,.41-.12.41-.37v-7.2A.38.38,0,0,0,28.28,18.89Z"/><path class="cls-1" d="M31.28,26.75h1.51a.32.32,0,0,0,.35-.36V15.08a.32.32,0,0,0-.35-.36H31.28c-.23,0-.34.12-.34.36V26.39C30.94,26.63,31.05,26.75,31.28,26.75Z"/><path class="cls-1" d="M35.85,26.75h1.51c.24,0,.35-.12.35-.36V15.08c0-.24-.11-.36-.35-.36H35.85c-.23,0-.34.12-.34.36V26.39C35.51,26.63,35.62,26.75,35.85,26.75Z"/><path class="cls-1" d="M40.19,17.3A1.25,1.25,0,0,0,42,15.54a1.25,1.25,0,1,0-1.77,1.76Z"/><path class="cls-1" d="M42.09,18.89a.41.41,0,0,0-.27-.1H40.41a.37.37,0,0,0-.28.1.44.44,0,0,0-.1.29v7.2a.33.33,0,0,0,.38.37h1.41c.27,0,.4-.12.4-.37v-7.2A.35.35,0,0,0,42.09,18.89Z"/><path class="cls-1" d="M51.74,18.82h-.27q-.3,0-.33.33l0,1.37a2,2,0,0,0-.41-.76,2.83,2.83,0,0,0-.69-.59,3.45,3.45,0,0,0-.9-.39,3.94,3.94,0,0,0-1-.14,3.58,3.58,0,0,0-1.54.33,3.81,3.81,0,0,0-1.25.89,4,4,0,0,0-.81,1.33,4.4,4.4,0,0,0-.3,1.62,4.32,4.32,0,0,0,1.12,2.93,3.94,3.94,0,0,0,1.24.88,3.58,3.58,0,0,0,1.54.33,3.68,3.68,0,0,0,1.84-.47,2.55,2.55,0,0,0,1.16-1.35v.81a3.2,3.2,0,0,1-.26,1.32,2.82,2.82,0,0,1-.66,1,2.78,2.78,0,0,1-1,.58,3.24,3.24,0,0,1-1.11.19,2.69,2.69,0,0,1-.67-.09,4.73,4.73,0,0,1-.66-.25l-.34-.14c-.1-.05-.18,0-.24.1l-.07.1-.11.16-.11.17a.21.21,0,0,0,0,.12c0,.07.06.15.19.22a5.26,5.26,0,0,0,1,.42,3.91,3.91,0,0,0,1.13.15,4.5,4.5,0,0,0,1.59-.27A3.23,3.23,0,0,0,51,28.86a3.89,3.89,0,0,0,.8-1.38A5.86,5.86,0,0,0,52,25.57V19.15C52,18.93,51.94,18.82,51.74,18.82Zm-.87,5.26a3.38,3.38,0,0,1-.64,1,3.09,3.09,0,0,1-.95.69,3,3,0,0,1-1.2.25,2.81,2.81,0,0,1-1.2-.26,3.09,3.09,0,0,1-1.56-1.72,3.47,3.47,0,0,1-.23-1.25,3.79,3.79,0,0,1,.22-1.26,3.15,3.15,0,0,1,.62-1,2.84,2.84,0,0,1,2.15-1,2.92,2.92,0,0,1,2.17,1,3.17,3.17,0,0,1,.63,1,3.56,3.56,0,0,1,.23,1.26A3.34,3.34,0,0,1,50.87,24.08Z"/><path class="cls-1" d="M54.81,26.75h.34a.26.26,0,0,0,.29-.29V22.08a2.91,2.91,0,0,1,.15-.92,2.56,2.56,0,0,1,.43-.78,2.14,2.14,0,0,1,.65-.55,1.65,1.65,0,0,1,.83-.21,1.76,1.76,0,0,1,.63.12,2.91,2.91,0,0,1,.53.27l.16,0A.23.23,0,0,0,59,20l.25-.36a.23.23,0,0,0,0-.25,2,2,0,0,0-.16-.2,2.62,2.62,0,0,0-.73-.33,2.72,2.72,0,0,0-.8-.13,2.36,2.36,0,0,0-1.34.37,1.93,1.93,0,0,0-.78,1l0-.89a.64.64,0,0,0-.06-.22q0-.09-.18-.09h-.41c-.17,0-.26.13-.26.37v7.29Q54.51,26.75,54.81,26.75Z"/><path class="cls-1" d="M67.27,18.82h-.34c-.12,0-.19,0-.22.08a.53.53,0,0,0-.07.25l0,1.37a2.2,2.2,0,0,0-.39-.76,2.88,2.88,0,0,0-.66-.59,3.19,3.19,0,0,0-.88-.39,3.81,3.81,0,0,0-1-.14,3.61,3.61,0,0,0-1.54.33,3.67,3.67,0,0,0-1.24.89,4,4,0,0,0-.82,1.33,4.39,4.39,0,0,0-.29,1.62,4.31,4.31,0,0,0,.3,1.61,4.14,4.14,0,0,0,.82,1.32,3.78,3.78,0,0,0,1.23.88,3.61,3.61,0,0,0,1.54.33,3.37,3.37,0,0,0,1.86-.51A2.53,2.53,0,0,0,66.61,25v1.43a.45.45,0,0,0,0,.23s.1.06.22.06h.39a.24.24,0,0,0,.27-.26V19.15C67.53,18.93,67.45,18.82,67.27,18.82Zm-.88,5.26a3.5,3.5,0,0,1-.61,1,2.77,2.77,0,0,1-2.12.94,2.76,2.76,0,0,1-1.19-.26,3,3,0,0,1-.94-.7,3.13,3.13,0,0,1-.63-1,3.47,3.47,0,0,1-.23-1.25,3.79,3.79,0,0,1,.22-1.26,3.15,3.15,0,0,1,.62-1,2.79,2.79,0,0,1,1-.71,2.84,2.84,0,0,1,1.2-.26,2.76,2.76,0,0,1,1.19.26,2.81,2.81,0,0,1,.93.71,3.31,3.31,0,0,1,.61,1,3.75,3.75,0,0,1,0,2.53Z"/><path class="cls-1" d="M71.16,20.92a2.14,2.14,0,0,1,2-1.32,2,2,0,0,1,.81.16,2.15,2.15,0,0,1,.66.45,2.23,2.23,0,0,1,.44.67,2,2,0,0,1,.16.82v4.74a.28.28,0,0,0,.31.31h.33c.2,0,.3-.11.3-.32V22.14a3.12,3.12,0,0,1,.15-1,2.59,2.59,0,0,1,.42-.81,2,2,0,0,1,.68-.56,2.16,2.16,0,0,1,.94-.2,2,2,0,0,1,.81.16,1.75,1.75,0,0,1,.64.46,2.25,2.25,0,0,1,.43.68,2.31,2.31,0,0,1,.15.83v4.71a.28.28,0,0,0,.32.31H81a.29.29,0,0,0,.32-.32V21.76a3.4,3.4,0,0,0-.18-1.08,3,3,0,0,0-.54-1,2.76,2.76,0,0,0-.92-.72,2.8,2.8,0,0,0-1.3-.29,2.6,2.6,0,0,0-1.54.46,3.11,3.11,0,0,0-1,1.23,2.86,2.86,0,0,0-1-1.2,2.76,2.76,0,0,0-1.62-.47,2.29,2.29,0,0,0-1.29.35,3.21,3.21,0,0,0-.9.86v-.86a.24.24,0,0,0-.23-.24h-.45c-.17,0-.25.09-.25.26v7.38c0,.19.11.29.31.29h.33a.26.26,0,0,0,.29-.29V21.75A1.93,1.93,0,0,1,71.16,20.92Z"/><path class="cls-2" d="M102.21,20.8A17.45,17.45,0,0,0,84.71,3.52H63.93a1.4,1.4,0,0,0-1.4,1.4v8.67a1,1,0,0,0,1,1h0a1,1,0,0,0,1-1V6.05a.6.6,0,0,1,.6-.6H84.71a15.41,15.41,0,1,1,.16,30.81H65.06a.6.6,0,0,1-.6-.6V32.17a1,1,0,0,0-1-1h0a1,1,0,0,0-1,1v4.62a1.4,1.4,0,0,0,1.4,1.4H84.87A17.37,17.37,0,0,0,102.21,20.8Z"/><path class="cls-2" d="M94.23,19.16a8.1,8.1,0,0,0-8.1-8.09H79.38V13h6.75a6.18,6.18,0,0,1,6.17,6.17v.67h1.93Z"/></g></g></svg>