<svg xmlns="http://www.w3.org/2000/svg" viewBox="0 0 110.41 110.38"><defs><style>.cls-1{fill:#fff;}.cls-2{fill:#3d3db7;}.cls-2,.cls-6{stroke:#3d3db7;stroke-miterlimit:10;}.cls-3{fill:#7b9ef4;}.cls-4{fill:#50d897;}.cls-5{fill:#fc7770;}.cls-6{fill:none;stroke-width:3.5px;}</style></defs><g id="Capa_2" data-name="Capa 2"><g id="Delivery_1" data-name="Delivery 1"><path class="cls-1" d="M5.8,91.8l25-25a9,9,0,0,1,9.32-2.17h0a9.08,9.08,0,0,1,5.63,5.63h0a9,9,0,0,1-2.16,9.32l-25,25A9,9,0,1,1,5.8,91.8Zm6.39,15.93A9.54,9.54,0,0,1,5.45,91.44l25-25A9.54,9.54,0,0,1,44,79.9l-25,25A9.45,9.45,0,0,1,12.19,107.73Zm-6-15.58a8.54,8.54,0,1,0,12.07,12.08l25-25a8.52,8.52,0,0,0,0-12.08,8.35,8.35,0,0,0-3.27-2,8.47,8.47,0,0,0-8.8,2Z"/><path class="cls-2" d="M12.19,109.88a11.63,11.63,0,0,0,8.27-3.42l25-25a11.64,11.64,0,0,0,3-11.26l5.67-5.68A35.24,35.24,0,0,0,74.65,71c.75,0,1.48,0,2.23-.07a35.22,35.22,0,0,0,22.67-60.1A35.25,35.25,0,0,0,45.9,56.18l-5.67,5.68A11.65,11.65,0,0,0,29,64.9l-25,25a11.69,11.69,0,0,0,8.26,20ZM51.57,12.71a32.6,32.6,0,1,1,3.32,49h0a31.38,31.38,0,0,1-3.32-2.89,32.46,32.46,0,0,1-2.89-3.31h0A32.66,32.66,0,0,1,51.57,12.71ZM47.51,58.28c.69.84,1.44,1.63,2.19,2.41a31.22,31.22,0,0,0,2.4,2.18l-4.63,4.64a12.82,12.82,0,0,0-2-2.63,11.2,11.2,0,0,0-2.63-2ZM5.8,91.8l25-25a9,9,0,0,1,9.32-2.17h0a9.08,9.08,0,0,1,5.63,5.63h0a9,9,0,0,1-2.16,9.32l-25,25A9,9,0,1,1,5.8,91.8Z"/><path class="cls-3" d="M47.68,58.52c.68.84,1.43,1.63,2.18,2.41s1.57,1.5,2.41,2.18l-4.64,4.64a12.42,12.42,0,0,0-2-2.63,11.41,11.41,0,0,0-2.63-2Zm-.16,10L47.2,68a12.3,12.3,0,0,0-1.89-2.52A10.73,10.73,0,0,0,42.8,63.6l-.58-.32,5.5-5.5.35.42c.69.85,1.44,1.64,2.15,2.38s1.59,1.51,2.37,2.14l.43.35Zm-3.66-5.52A11.5,11.5,0,0,1,46,64.77a13.12,13.12,0,0,1,1.72,2.17l3.79-3.79c-.67-.57-1.35-1.2-2-1.87s-1.25-1.3-1.86-2Z"/><circle class="cls-4" cx="73.99" cy="35.29" r="23.98" transform="translate(10.54 87.2) rotate(-64.79)"/><path class="cls-5" d="M75.43,24.41a9.21,9.21,0,0,0-9.21,9.21c0,4,5.67,11.4,8.12,14.43a1.39,1.39,0,0,0,2.19,0c2.44-3,8.11-10.43,8.11-14.43A9.21,9.21,0,0,0,75.43,24.41Z"/><path class="cls-2" d="M57.05,53.33a22.69,22.69,0,0,0,3.28,2.74A24.81,24.81,0,0,0,74.64,60.6c.67,0,1.34,0,2-.07A24.85,24.85,0,0,0,98.92,40.94h0v0h0a24.94,24.94,0,0,0-.8-13.24v0a1.13,1.13,0,0,0-.3-.76,24.84,24.84,0,0,0-47.51,14h0a.07.07,0,0,0,0,.06s0,0,0,.06,0,0,0,0h0a25.57,25.57,0,0,0,6.68,12.32ZM96,28.82a22.6,22.6,0,0,1,.61,11.63h0v0A22.51,22.51,0,0,1,61.68,54.15h0a23.5,23.5,0,0,1-3-2.49,21.93,21.93,0,0,1-2.49-3,22.3,22.3,0,0,1-3.59-8.25h0a22.5,22.5,0,0,1,42.49-14Z"/><path class="cls-6" d="M75.43,24.41a9.21,9.21,0,0,0-9.21,9.21c0,4,5.67,11.4,8.12,14.43a1.39,1.39,0,0,0,2.19,0c2.44-3,8.11-10.43,8.11-14.43A9.21,9.21,0,0,0,75.43,24.41Z"/></g></g></svg>