<svg xmlns="http://www.w3.org/2000/svg" viewBox="0 0 103.8 111.37"><defs><style>.cls-1{fill:#f2f2f2;}.cls-2{fill:#7b9ef4;}.cls-3{fill:#fc7770;}.cls-4{fill:#50d897;}.cls-5,.cls-6{fill:#3d3db7;}.cls-5{stroke:#3d3db7;stroke-miterlimit:10;}</style></defs><g id="Capa_2" data-name="Capa 2"><g id="why_milligram" data-name="why milligram"><path class="cls-1" d="M71.87,46.09a12.66,12.66,0,0,0-10,4.52,12.46,12.46,0,0,0-9.09-4.48,2.94,2.94,0,0,0-.42,0H51.9a12.72,12.72,0,0,0-10,4.53,12.63,12.63,0,0,0-10-4.61,12.67,12.67,0,0,0-8.76,3.27c.45-11.72,4.69-31.44,26.7-40.39.68,0,1.36,0,2.05,0,.45,0,.89,0,1.34,0C74.93,17.72,79.37,37,79.94,48.79A12.76,12.76,0,0,0,71.87,46.09Z"/><path class="cls-2" d="M11.91,46.23a13.31,13.31,0,0,0-7.54,2.24C7.27,29.72,21.92,14.6,40.86,10.3,24.1,20.64,20.31,37.75,19.77,48.75A12.61,12.61,0,0,0,11.91,46.23Z"/><path class="cls-3" d="M82.79,49.49c-.6-11.43-3.62-29.24-22-40C81.55,14,97.61,29.7,100.79,49.2a15.35,15.35,0,0,0-8.26-2.33A18,18,0,0,0,82.79,49.49Z"/><circle class="cls-4" cx="87.25" cy="75.93" r="12.49"/><path class="cls-5" d="M87.25,61.51a14.42,14.42,0,1,0,14.41,14.42A14.4,14.4,0,0,0,87.25,61.51Zm0,26.91A12.5,12.5,0,1,1,99.74,75.93,12.47,12.47,0,0,1,87.25,88.42Z"/><path class="cls-6" d="M90.32,72.85a.77.77,0,1,0,0-1.53H88V69.78a.77.77,0,0,0-1.54,0v1.54h-.39a2.69,2.69,0,0,0,0,5.38h.39V79H84.17a.77.77,0,0,0,0,1.54h2.31v1.54a.77.77,0,1,0,1.54,0V80.54h.38a2.69,2.69,0,0,0,0-5.38H88V72.85ZM88.4,76.7a1.15,1.15,0,0,1,0,2.3H88V76.7Zm-1.92-1.54h-.39a1.16,1.16,0,0,1,0-2.31h.39Z"/><path class="cls-6" d="M54.32,5.32V1.92a1.92,1.92,0,0,0-3.84,0V5.34C22.5,6,0,28.17,0,55.26v.91a1.92,1.92,0,0,0,3.84,0v-.23C4,52.67,7.53,50,11.91,50S20,52.76,20,56.13a1.93,1.93,0,0,0,3.85,0c0-3.37,3.62-6.1,8.07-6.1S40,52.76,40,56.13a1.93,1.93,0,0,0,3.85,0c0-3,2.88-5.48,6.64-6v53a8.25,8.25,0,0,0,16.49,0h0V99.2a1.92,1.92,0,0,0-3.84,0v4a4.41,4.41,0,0,1-8.81,0V50.3c3.29.78,5.67,3.1,5.67,5.83a1.93,1.93,0,0,0,3.85,0c0-3.37,3.62-6.1,8.07-6.1s8.06,2.73,8.06,6.1a1.93,1.93,0,0,0,3.85,0c0-3.37,3.62-6.1,8.07-6.1s7.91,2.62,8.06,5.89a.48.48,0,0,1,0,.17,1.93,1.93,0,0,0,3.85,0v-.88l0,.08C103.8,28.48,81.82,6.54,54.32,5.32ZM11.91,46.23a13.31,13.31,0,0,0-7.54,2.24C7.27,29.72,21.92,14.6,40.86,10.3,24.1,20.64,20.31,37.75,19.77,48.75A12.61,12.61,0,0,0,11.91,46.23Zm60,0a12.66,12.66,0,0,0-10,4.52,12.46,12.46,0,0,0-9.09-4.48,2.94,2.94,0,0,0-.42,0H51.9a12.72,12.72,0,0,0-10,4.53,12.6,12.6,0,0,0-10-4.61,12.67,12.67,0,0,0-8.76,3.27c.45-11.72,4.69-31.44,26.7-40.39.68,0,1.36,0,2.05,0,.45,0,.89,0,1.34,0C74.93,17.9,79.37,37.19,79.94,49A12.76,12.76,0,0,0,71.87,46.27Zm20,0a13.08,13.08,0,0,0-8.51,3c-.46-11-4.14-28.69-21.47-39.17,19.43,4,34.57,19.28,37.53,38.39A13.52,13.52,0,0,0,91.85,46.23Z"/></g></g></svg>