<svg xmlns="http://www.w3.org/2000/svg" viewBox="0 0 81.32 164.96"><defs><style>.cls-1,.cls-5{fill:none;}.cls-1,.cls-2,.cls-3,.cls-4,.cls-5{stroke:#3d3db7;stroke-miterlimit:10;}.cls-1,.cls-2,.cls-3,.cls-4{stroke-width:4px;}.cls-2{fill:#50d897;}.cls-3{fill:#fc7770;}.cls-4{fill:#7b9ef4;}.cls-5{stroke-width:2px;}.cls-6{fill:#fff;}</style></defs><g id="Capa_2" data-name="Capa 2"><g id="why_milligram" data-name="why milligram"><path class="cls-1" d="M23.09,134.68a.46.46,0,0,0-.48.47V138a.48.48,0,1,0,.95,0v-2.82A.48.48,0,0,0,23.09,134.68Z"/><path class="cls-1" d="M34.79,134.68a.46.46,0,0,0-.48.47V138a.46.46,0,0,0,.48.48.45.45,0,0,0,.47-.48v-2.82A.45.45,0,0,0,34.79,134.68Z"/><path class="cls-1" d="M46.53,134.68a.46.46,0,0,0-.48.47V138a.48.48,0,0,0,1,0v-2.82A.52.52,0,0,0,46.53,134.68Z"/><path class="cls-1" d="M58.23,134.68a.46.46,0,0,0-.47.47V138a.48.48,0,1,0,1,0v-2.82A.48.48,0,0,0,58.23,134.68Z"/><path class="cls-1" d="M23.09,152.77a.46.46,0,0,0-.48.47v2.82a.48.48,0,1,0,.95,0v-2.82A.46.46,0,0,0,23.09,152.77Z"/><path class="cls-1" d="M34.79,152.77a.46.46,0,0,0-.48.47v2.82a.46.46,0,0,0,.48.48.45.45,0,0,0,.47-.48v-2.82A.43.43,0,0,0,34.79,152.77Z"/><path class="cls-1" d="M46.53,152.77a.46.46,0,0,0-.48.47v2.82a.48.48,0,0,0,1,0v-2.82A.48.48,0,0,0,46.53,152.77Z"/><path class="cls-1" d="M58.23,152.77a.46.46,0,0,0-.47.47v2.82a.48.48,0,1,0,1,0v-2.82A.46.46,0,0,0,58.23,152.77Z"/><rect class="cls-1" x="27.15" y="105.08" width="27.02" height="14.12"/><path class="cls-2" d="M55.16,103.14H22.43a4.09,4.09,0,0,1-4.09-4.09V91.71H63.05v7.34A4.08,4.08,0,0,1,59,103.14Z"/><path class="cls-1" d="M64,89.77H14.22A4.52,4.52,0,0,1,9.7,85.25v-6.9H71.62v6.9a4.52,4.52,0,0,1-4.52,4.52Z"/><path class="cls-3" d="M72.61,76.4H6.68A4.69,4.69,0,0,1,2,71.72V64.94H79.32v6.78a4.69,4.69,0,0,1-4.68,4.68Z"/><polygon class="cls-4" points="57.82 62.99 23.54 62.99 23.54 51.57 40.68 51.57 40.68 51.57 40.68 51.57 57.82 51.57 57.82 62.99"/><polyline class="cls-1" points="11.6 164.96 11.6 121.15 26.2 121.15 55.16 121.15 69.76 121.15 69.76 164.96"/><line class="cls-5" x1="40.59" y1="52" x2="40.59"/><circle class="cls-1" cx="40.59" cy="39.52" r="1.71"/><path class="cls-1" d="M38.89,12.33A1.71,1.71,0,1,1,40.59,14,1.74,1.74,0,0,1,38.89,12.33Z"/><circle class="cls-1" cx="40.59" cy="26.22" r="1.71"/><circle class="cls-6" cx="40.59" cy="12.5" r="1.5"/><circle class="cls-6" cx="40.59" cy="26.22" r="1.5"/><circle class="cls-6" cx="40.59" cy="39.52" r="1.5"/></g></g></svg>